<svg width="18" height="18" viewBox="0 0 18 18" fill="none" xmlns="http://www.w3.org/2000/svg">
<path d="M9.00008 0.666656C4.40008 0.666656 0.666748 4.39999 0.666748 8.99999C0.666748 13.6 4.40008 17.3333 9.00008 17.3333C13.6001 17.3333 17.3334 13.6 17.3334 8.99999C17.3334 4.39999 13.6001 0.666656 9.00008 0.666656ZM9.00008 3.16666C10.3834 3.16666 11.5001 4.28332 11.5001 5.66666C11.5001 7.04999 10.3834 8.16666 9.00008 8.16666C7.61675 8.16666 6.50008 7.04999 6.50008 5.66666C6.50008 4.28332 7.61675 3.16666 9.00008 3.16666ZM9.00008 15C6.91675 15 5.07508 13.9333 4.00008 12.3167C4.02508 10.6583 7.33342 9.74999 9.00008 9.74999C10.6584 9.74999 13.9751 10.6583 14.0001 12.3167C12.9251 13.9333 11.0834 15 9.00008 15Z" fill="#9CA2B1"/>
</svg>
