<svg xmlns="http://www.w3.org/2000/svg" width="16" height="18" viewBox="0 0 16 18" fill="none">
<path d="M13.9665 1.8158L3.79074 0.0189215C3.46431 -0.0385233 3.12842 0.0360345 2.85694 0.226199C2.58547 0.416364 2.40063 0.706564 2.34309 1.03298L0.0188694 14.2361C-0.00955798 14.3979 -0.00583388 14.5636 0.0298289 14.7239C0.0654917 14.8842 0.132394 15.0359 0.226713 15.1704C0.321032 15.3048 0.440918 15.4194 0.579521 15.5075C0.718124 15.5955 0.872727 15.6555 1.03449 15.6838L11.2103 17.4806C11.3721 17.5092 11.5379 17.5055 11.6983 17.4699C11.8587 17.4343 12.0105 17.3674 12.1451 17.2731C12.2796 17.1788 12.3942 17.0589 12.4823 16.9202C12.5705 16.7815 12.6304 16.6269 12.6587 16.465L14.9829 3.26189C15.0399 2.93535 14.9648 2.59956 14.7742 2.32837C14.5836 2.05719 14.2931 1.87281 13.9665 1.8158ZM8.08528 9.02752C8.05977 9.1721 7.98417 9.30309 7.87175 9.39751C7.75932 9.49194 7.61725 9.54377 7.47043 9.54392C7.43377 9.54391 7.39718 9.54077 7.36106 9.53455L4.11887 8.96189C3.96479 8.92399 3.83088 8.8289 3.74433 8.69592C3.65777 8.56293 3.62504 8.40199 3.65276 8.24576C3.68049 8.08953 3.76661 7.94969 3.89364 7.85461C4.02068 7.75953 4.17912 7.71633 4.33684 7.73377L7.57746 8.3033C7.65839 8.31745 7.73572 8.34742 7.80506 8.39149C7.87439 8.43556 7.93435 8.49286 7.98151 8.56013C8.02868 8.62739 8.06212 8.70329 8.07992 8.78349C8.09773 8.86369 8.09955 8.94661 8.08528 9.02752ZM11.7572 7.13845C11.7317 7.2829 11.6562 7.41379 11.5439 7.5082C11.4317 7.60261 11.2898 7.65452 11.1431 7.65486C11.1061 7.65493 11.0693 7.65153 11.0329 7.6447L4.54856 6.50017C4.38528 6.47127 4.24018 6.37869 4.14516 6.2428C4.05015 6.1069 4.01301 5.93884 4.04192 5.77556C4.07082 5.61229 4.1634 5.46718 4.29929 5.37217C4.43518 5.27716 4.60325 5.24002 4.76653 5.26892L11.2509 6.41423C11.3319 6.4283 11.4093 6.4582 11.4787 6.50223C11.5482 6.54626 11.6082 6.60355 11.6554 6.67083C11.7027 6.7381 11.7362 6.81403 11.7541 6.89428C11.7719 6.97452 11.7738 7.05749 11.7595 7.13845H11.7572ZM12.1907 4.67595C12.1652 4.82054 12.0896 4.95152 11.9772 5.04595C11.8648 5.14037 11.7227 5.19221 11.5759 5.19236C11.5392 5.19231 11.5027 5.18917 11.4665 5.18298L4.98215 4.03767C4.89946 4.0255 4.82005 3.99687 4.74862 3.95347C4.6772 3.91007 4.6152 3.85279 4.5663 3.78501C4.51739 3.71723 4.48258 3.64033 4.46393 3.55886C4.44527 3.47739 4.44314 3.393 4.45767 3.31069C4.4722 3.22839 4.50308 3.14983 4.54851 3.07967C4.59393 3.00951 4.65296 2.94917 4.72211 2.90223C4.79126 2.85529 4.86913 2.82269 4.9511 2.80637C5.03307 2.79004 5.11748 2.79033 5.19934 2.8072L11.6837 3.95173C11.7648 3.96571 11.8423 3.99555 11.9118 4.03954C11.9813 4.08353 12.0414 4.14081 12.0888 4.20809C12.1361 4.27537 12.1697 4.35134 12.1876 4.43162C12.2055 4.51191 12.2073 4.59494 12.1931 4.67595H12.1907Z" fill="#9ca2b1"/>
</svg>