<svg width="18" height="18" viewBox="0 0 18 18" fill="none" xmlns="http://www.w3.org/2000/svg">
<path d="M9.00008 0.666656C4.40008 0.666656 0.666748 4.39999 0.666748 8.99999C0.666748 13.6 4.40008 17.3333 9.00008 17.3333C13.6001 17.3333 17.3334 13.6 17.3334 8.99999C17.3334 4.39999 13.6001 0.666656 9.00008 0.666656ZM12.0084 5.94999C12.9001 5.94999 13.6167 6.66666 13.6167 7.55832C13.6167 8.44999 12.9001 9.16666 12.0084 9.16666C11.1167 9.16666 10.4001 8.44999 10.4001 7.55832C10.3917 6.66666 11.1167 5.94999 12.0084 5.94999ZM7.00841 4.63332C8.09175 4.63332 8.97508 5.51666 8.97508 6.59999C8.97508 7.68332 8.09175 8.56666 7.00841 8.56666C5.92508 8.56666 5.04175 7.68332 5.04175 6.59999C5.04175 5.50832 5.91675 4.63332 7.00841 4.63332ZM7.00841 12.2417V15.3667C5.00841 14.7417 3.42508 13.2 2.72508 11.2333C3.60008 10.3 5.78341 9.82499 7.00841 9.82499C7.45008 9.82499 8.00842 9.89166 8.59175 10.0083C7.22508 10.7333 7.00841 11.6917 7.00841 12.2417ZM9.00008 15.6667C8.77508 15.6667 8.55841 15.6583 8.34175 15.6333V12.2417C8.34175 11.0583 10.7917 10.4667 12.0084 10.4667C12.9001 10.4667 14.4417 10.7917 15.2084 11.425C14.2334 13.9 11.8251 15.6667 9.00008 15.6667Z" fill="#9CA2B1"/>
</svg>
